  <svg xmlns="http://www.w3.org/2000/svg" width="30" height="30" x="0" y="0" viewBox="0 0 512.001 512" style="enable-background:new 0 0 512 512"  class=""><g><path fill="#e4eaf8" d="M445.84 250.773c-1.38-50.085-22.238-95.671-55.543-128.984h-.004C354.816 86.32 306.828 66.16 256 66.16c-49.273 0-97.785 19.117-134.297 55.63-35.555 35.558-54.234 82.022-55.543 128.995-.07 2.524-2.16 4.524-4.683 4.524H450.52c-2.528-.004-4.61-2.008-4.68-4.536zm0 0" opacity="1" data-original="#e4eaf8" class=""></path><path fill="#d8dce5" d="M156.734 123.93c32.22-33.461 73.786-52.844 116.97-56.938A190.228 190.228 0 0 0 256 66.16c-49.273 0-97.785 19.117-134.297 55.625C86.148 157.348 67.47 203.81 66.16 250.781c-.07 2.524-2.16 4.524-4.683 4.524h39.808c1.89-47.899 20.524-95.098 55.45-131.375zm0 0" opacity="1" data-original="#d8dce5"></path><path fill="#feca57" d="M437.063 75.004C388.921 26.883 324.113 0 256 0v69.637c49.895 0 97 19.789 131.824 54.605zm0 0" opacity="1" data-original="#feca57"></path><path fill="#15ba8b" d="m74.934 75 49.242 49.242C159.19 89.227 206.406 69.637 256 69.637V0C191.5 0 128.781 23.078 74.934 75zm0 0" opacity="1" data-original="#15ba8b"></path><path fill="#15ba8b" d="m74.934 75 49.242 49.242C159.19 89.227 206.406 69.637 256 69.637V0C191.5 0 128.781 23.078 74.934 75zm0 0" opacity="1" data-original="#15ba8b"></path><path fill="#54a0ff" d="M0 250.574c-.055 2.59 2.016 4.73 4.605 4.73h60.45c2.476 0 4.527-1.96 4.597-4.437 1.282-46.113 19.621-91.719 54.524-126.625L74.934 75C28.644 121.29 1.418 183.723 0 250.574zm0 0" opacity="1" data-original="#54a0ff" class=""></path><path fill="#11aa7b" d="M106.652 73.047C150.273 30.984 199.66 7.664 251.113.055 188.336 1.195 127.422 24.39 74.933 75l15.66 15.66a261.658 261.658 0 0 1 16.06-17.613zm0 0" opacity="1" data-original="#11aa7b"></path><path fill="#338def" d="M35.566 255.305c-2.62 0-4.714-2.164-4.656-4.782C32.168 191.09 53.617 135.121 90.594 90.66L74.934 75C28.644 121.29 1.418 183.723 0 250.574c-.055 2.59 2.016 4.73 4.605 4.73h60.45zm0 0" opacity="1" data-original="#338def"></path><path fill="#ff6b6b" d="m437.066 75-49.242 49.242c32.7 32.703 53.172 77.45 54.524 126.617.07 2.48 2.117 4.446 4.597 4.446h60.45c2.59 0 4.66-2.137 4.605-4.73-1.395-65.208-27.55-128.208-74.934-175.575zM331.258 264.254l37.398-121.008c1.547-5.012-3.148-9.707-8.156-8.16l-121.012 37.398c-52.789 16.317-69.285 82.918-30.215 121.985 39.07 39.07 105.668 22.574 121.985-30.215zm0 0" opacity="1" data-original="#ff6b6b" class=""></path><path fill="#ee5253" d="M240.18 294.469c-39.07-39.067-22.57-105.668 30.218-121.985l98.5-30.441c.532-4.523-3.793-8.379-8.398-6.957l-121.012 37.398c-52.789 16.317-69.285 82.918-30.215 121.985 18.88 18.879 44.184 24.781 67.137 19.886-13.062-2.812-25.656-9.308-36.23-19.886zm0 0" opacity="1" data-original="#ee5253"></path><path fill="#ee5253" d="M282.477 221.262c-12.293-12.297-32.227-12.297-44.524 0-12.293 12.293-12.293 32.226 0 44.523 12.297 12.293 32.23 12.293 44.524 0 12.296-12.297 12.296-32.23 0-44.523zm0 0" opacity="1" data-original="#ee5253"></path><path fill="#d83941" d="M275.96 216.254c-12.038-6.961-27.698-5.293-38.003 5.008-12.293 12.293-12.293 32.23 0 44.523 10.3 10.3 25.965 11.965 38.004 5.008-21.05-12.172-20.879-42.465 0-54.54zm0 0" opacity="1" data-original="#d83941"></path></g></svg>
    