<svg xmlns="http://www.w3.org/2000/svg"  width="30" height="30" x="0" y="0" viewBox="0 0 64 64" style="enable-background:new 0 0 512 512"  class=""><g><path fill="#93999a" d="M51.341 40.732a1 1 0 0 1-.5-1.866l7.794-4.5-.5-.866a1 1 0 1 1 1.732-1l1 1.732A1 1 0 0 1 60.5 35.6l-8.66 5a1 1 0 0 1-.499.132z" opacity="1" data-original="#93999a"></path><rect width="12" height="12" x="46.742" y="38.428" fill="#f9e109" rx="2" transform="rotate(-30 52.739 44.43)" opacity="1" data-original="#f9e109"></rect><path fill="#fcbc04" d="M58.865 43.033a6 6 0 0 1-7.319-2.605l-.969-1.678-4.3 2.482a2 2 0 0 0-.732 2.732l4 6.928a2 2 0 0 0 2.732.732l6.928-4a2 2 0 0 0 .732-2.732z" opacity="1" data-original="#fcbc04"></path><circle cx="52.742" cy="44.428" r="2" fill="#f89c8d" opacity="1" data-original="#f89c8d"></circle><path fill="#f8664f" d="M52.268 44a1.988 1.988 0 0 1-.212-1.446 2.091 2.091 0 0 0-.314.142 2 2 0 1 0 2.944 2.178A2 2 0 0 1 52.268 44z" opacity="1" data-original="#f8664f"></path><path fill="#d0d8da" d="m39.804 3-12 20.785 9.526 5.5-.732-2.732 2.732-.732-1.598-3.233 2.732-.732-1.598-3.232 2.732-.732L40 14.66l2.732-.732L42 11.196l2.732-.732L45 6z" opacity="1" data-original="#d0d8da"></path><path fill="#93999a" d="m38.866 18.624.307-.082a4.99 4.99 0 0 1-.869-6.088l4.469-7.74L39.8 3l-12 20.785 9.526 5.5-.726-2.732 2.732-.733-1.6-3.232 2.732-.732z" opacity="1" data-original="#93999a"></path><path fill="#84d2f4" d="m7 33.999 17.32 10-4 6.928-17.32-10z" opacity="1" data-original="#84d2f4"></path><path fill="#57b7eb" d="M13.648 37.838a4.987 4.987 0 0 1-6.658 1.59l-2.343-1.353L3 40.928l17.32 10 4-6.928z" opacity="1" data-original="#57b7eb"></path><path fill="#f9e109" d="m11.33 36.5-2 3.464a1 1 0 1 1-1.732-1l2-3.464zM14.794 38.5l-2 3.464a1 1 0 1 1-1.732-1l2-3.464z" opacity="1" data-original="#f9e109"></path><g fill="#fcbc04"><path d="M9.23 40.09a.957.957 0 0 1-.77.37 1.009 1.009 0 0 1-.5-.13 1 1 0 0 1-.48-.66 4.536 4.536 0 0 0 1.75.42zM14.79 38.5l-2 3.46a.97.97 0 0 1-.86.5 1 1 0 0 1-.87-1.5l.89-1.53a4.958 4.958 0 0 0 1.7-1.59z" fill="#fcbc04" opacity="1" data-original="#fcbc04"></path></g><path fill="#d0d8da" d="m8.653 17.396 7.777-7.777 7.07 7.07-7.777 7.777zM2.998 23.051l2.828-2.828 7.07 7.07-2.828 2.828z" opacity="1" data-original="#d0d8da"></path><path fill="#656b76" d="m7.24 21.638 2.828-2.828 4.242 4.242-2.828 2.828z" opacity="1" data-original="#656b76"></path><path fill="#d0d8da" d="m27.042 10.325-.065.018a6.934 6.934 0 0 0-4.867 4.867l-.018.065-4.243-4.243a6.937 6.937 0 0 1 8.008-1.3z" opacity="1" data-original="#d0d8da"></path><path fill="#57b7eb" d="m17.844 22.346 4.242-4.242 14.14 14.14-4.242 4.242z" opacity="1" data-original="#57b7eb"></path><g fill="#93999a"><path d="M18.556 17.639a4 4 0 0 1-5.657 0L10.657 15.4l-2 2 7.071 7.071 7.778-7.778-2-2zM7.95 26 4 22.053l-1 1 7.071 7.071L12.9 27.3l-1.03-1.034A2.991 2.991 0 0 1 7.95 26zM24.877 9.336a6.949 6.949 0 0 0-1.832 1.854 1.778 1.778 0 0 1-2.751.287l-1.329-1.329a6.892 6.892 0 0 0-1.116.884l4.243 4.243.017-.065a6.937 6.937 0 0 1 4.868-4.867l.065-.018-1.185-.592a6.959 6.959 0 0 0-.98-.397z" fill="#93999a" opacity="1" data-original="#93999a"></path></g><path fill="#4891d3" d="m25.234 21.245-1.268 1.268a1.379 1.379 0 0 1-1.949 0 1.38 1.38 0 0 1 0-1.95l1.267-1.263-1.192-1.2-4.243 4.243 14.142 14.145 4.243-4.243z" opacity="1" data-original="#4891d3"></path><path fill="#93999a" d="M48.76 20.99 53 25.232 37.447 40.786l-4.242-4.242z" opacity="1" data-original="#93999a"></path><path fill="#656b76" d="M47.675 22.082 42.761 27a7.845 7.845 0 0 0 .586.657 7.962 7.962 0 0 0 4.934 2.309L53 25.239l-1.5-1.5-1.086 1.086z" opacity="1" data-original="#656b76"></path><path fill="#d0d8da" d="m60.367 17.876-5.949 5.949-4.243-4.243 5.949-5.949a8 8 0 1 0 4.243 4.243z" opacity="1" data-original="#d0d8da"></path><path fill="#93999a" d="M59.66 22.653a7.994 7.994 0 0 1-13.65-5.53 7.993 7.993 0 1 0 14.97 3.763 7.922 7.922 0 0 1-1.32 1.767z" opacity="1" data-original="#93999a"></path><path fill="#f9e109" d="M53.91 61H10.09a4 4 0 0 1-3.424-6.068l21.91-36.265a4 4 0 0 1 6.848 0l21.91 36.265A4 4 0 0 1 53.91 61z" opacity="1" data-original="#f9e109"></path><path fill="#fcbc04" d="M54.354 50H44a12 12 0 0 1-12-12V16.735a3.965 3.965 0 0 0-3.424 1.932L6.666 54.932A4 4 0 0 0 10.09 61h43.82a4 4 0 0 0 3.424-6.068z" opacity="1" data-original="#fcbc04"></path><path fill="#f8664f" d="M32 47a2.114 2.114 0 0 1-2.111-2l-.723-13A2.839 2.839 0 0 1 32 29a2.839 2.839 0 0 1 2.834 3l-.723 13A2.114 2.114 0 0 1 32 47z" opacity="1" data-original="#f8664f"></path><g fill="#cc5144"><circle cx="32" cy="53" r="2" fill="#cc5144" opacity="1" data-original="#cc5144"></circle><path d="M29.889 45a2.114 2.114 0 0 0 4.222 0l.011-.2A11.932 11.932 0 0 1 32 38v-9a2.839 2.839 0 0 0-2.834 3z" fill="#cc5144" opacity="1" data-original="#cc5144"></path></g></g></svg>
  