 <svg xmlns="http://www.w3.org/2000/svg"  width="30" height="30" x="0" y="0" viewBox="0 0 512 512" style="enable-background:new 0 0 512 512" class=""><g><path fill="#f1f4f6" d="M175.379 90.525c-8.251-7.508-12.865-18.209-12.872-29.364L162.5 48.5c0-20.711-16.789-37.5-37.5-37.5S87.5 27.789 87.5 48.5l-.007 12.661c-.006 11.155-4.621 21.856-12.872 29.364C59.158 104.595 50 124.733 50 146v15h150v-15c0-21.267-9.158-41.405-24.621-55.475z" opacity="1" data-original="#f1f4f6"></path><path fill="#daeaec" d="M175.379 90.525c-8.251-7.508-12.865-18.209-12.872-29.364L162.5 48.5c0-20.711-16.789-37.5-37.5-37.5v150h75v-15c0-21.267-9.158-41.405-24.621-55.475z" opacity="1" data-original="#daeaec"></path><path fill="#acceff" d="M195 501H55c-30.327 0-55-24.673-55-55V294.31c0-41.206 21.95-79.973 57.283-101.172L60.845 191h128.31l3.563 2.138C228.05 214.337 250 253.104 250 294.31V446c0 30.327-24.673 55-55 55z" opacity="1" data-original="#acceff"></path><path fill="#8bb9ff" d="M192.717 193.138 189.155 191H125v310h70c30.327 0 55-24.673 55-55V294.31c0-41.206-21.95-79.973-57.283-101.172z" opacity="1" data-original="#8bb9ff"></path><path fill="#ffd0f9" d="M195 211H55c-19.299 0-35-15.701-35-35s15.701-35 35-35h140c19.299 0 35 15.701 35 35s-15.701 35-35 35z" opacity="1" data-original="#ffd0f9"></path><path fill="#ffa2ff" d="M195 141h-70v70h70c19.299 0 35-15.701 35-35s-15.701-35-35-35z" opacity="1" data-original="#ffa2ff"></path><g fill="#f1f4f6"><path d="M55 441H0v-30h55c8.284 0 15 6.716 15 15 0 8.284-6.716 15-15 15zM55 381H0v-30h55c8.284 0 15 6.716 15 15 0 8.284-6.716 15-15 15zM55 321H0v-30h55c8.284 0 15 6.716 15 15 0 8.284-6.716 15-15 15z" fill="#f1f4f6" opacity="1" data-original="#f1f4f6"></path></g><path fill="#ec8600" d="M437 311h-12.587a15 15 0 0 1-14.815-17.349l9.512-60A15 15 0 0 1 433.925 221H497c8.284 0 15 6.716 15 15 0 41.355-33.645 75-75 75z" opacity="1" data-original="#ec8600"></path><path fill="#ffe278" d="M190.787 326.952c-15.345-6.922-30.025-17.43-42.803-31.168A15 15 0 0 0 122 306v80c0 63.411 51.589 115 115 115h106.586c27.727 0 54.223-10.297 74.606-28.994 20.83-19.106 32.814-44.815 33.746-72.393.682-20.196-4.398-39.985-14.691-57.228-7.556-12.657-7.808-27.427-.641-37.628 10.526-14.981 15.839-32.615 15.364-50.996-1.161-44.938-38.682-82.061-83.641-82.751-22.97-.32-44.617 8.321-60.969 24.423C291.007 211.539 282 233.049 282 256c0 18.436 5.824 35.938 16.613 50.469L278 389z" opacity="1" data-original="#ffe278"></path><path fill="#ffd845" d="M436.607 304.758c10.526-14.981 15.839-32.615 15.364-50.996-1.161-44.938-38.682-82.061-83.641-82.751-18.702-.261-36.526 5.422-51.33 16.232V501h26.586c27.727 0 54.223-10.297 74.606-28.994 20.83-19.106 32.814-44.815 33.746-72.393.682-20.196-4.398-39.985-14.691-57.228-7.556-12.656-7.807-27.426-.64-37.627z" opacity="1" data-original="#ffd845"></path><circle cx="382" cy="246" r="15" fill="#595e63" opacity="1" data-original="#595e63"></circle><path fill="#ffd845" d="M298.613 306.469c-8.438 9.575-20.475 19.684-36.613 25.39-22.313 7.888-47.555 5.766-71.213-4.906-10.544 13.077-13.288 30.855-6.979 46.424 4.741 11.701 11.305 23.967 20.364 34.844 18.325 22.003 42.925 33.41 71.704 33.41 4.174 0 8.439-.24 12.781-.723 35.069-3.896 57.756-17.148 67.432-39.389 8.229-18.917 6.093-42.586-6.35-70.348a172.34 172.34 0 0 0-1.13-2.47c-8.772-18.792-30.127-28.178-49.996-22.232z" opacity="1" data-original="#ffd845"></path><path fill="#ffcb00" d="M348.608 328.702c-6.067-12.999-18.156-21.493-31.608-23.53v129.655c19.227-6.64 32.333-17.78 39.088-33.308 8.229-18.917 6.093-42.586-6.35-70.348a177.37 177.37 0 0 0-1.13-2.469z" opacity="1" data-original="#ffcb00"></path></g></svg>
  