  <svg xmlns="http://www.w3.org/2000/svg"  width="30" height="30" x="0" y="0" viewBox="0 0 512 512" style="enable-background:new 0 0 512 512"  class=""><g><path fill="#008cdf" d="M256 0c-5.479 0-10.918.172-16.312.511L26.553 142.337C9.556 176.583 0 215.176 0 256c0 74.876 32.145 142.244 83.389 189.056 0 0 83.43 57.386 172.611 57.386 119.325 0 243.452-105.057 243.452-246.442 0-167.639-159.5-241.917-159.5-241.917C313.653 4.958 285.405 0 256 0z" opacity="1" data-original="#008cdf"></path><path fill="#0069d0" d="m509.492 220.038-62.062-7.084c0 141.385-114.615 256-256 256-38.613 0-75.211-8.589-108.042-23.898 19.876 18.158 42.626 33.223 67.488 44.434l15.074-.84 19.115 13.392C207.59 508.524 231.389 512 256 512c141.385 0 256-114.615 256-256 0-12.207-.855-24.213-2.508-35.962z" opacity="1" data-original="#0069d0"></path><path fill="#98db7c" d="M364.312 23.969c-7.907-3.696-16.036-7-24.36-9.886l-22.641 19.912a16.512 16.512 0 0 0-3.123 21.532c4.385 6.81 13.25 9.186 20.711 6.035l4.582-1.936c5.627-2.376 12.219-1.516 16.781 2.547 8.062 7.182 6.657 19.875-2.389 25.228l-53.169 31.461c-10.385 6.145-16.981 17.316-16.765 29.381.224 12.532 7.246 22.739 21.358 24.039 29.202 2.69 24.998-28.25 42.15-28.25h58.826c8.954 0 16.719 6.695 17.495 15.616.884 10.164-7.105 18.687-17.085 18.687h-70.54c-27.437 0-51.363 21.143-52.187 48.568-.851 28.378 21.899 51.65 50.086 51.65h7.174c13.682 0 24.774 11.092 24.774 24.774v88.039c0 2.613.459 5.19 1.322 7.595l20.718-.446 64.507-104.905 8.291-60.122 21.03-30.449c.001.001-40.652-143.127-117.546-179.07z" opacity="1" data-original="#98db7c"></path><path fill="#77cc7d" d="M509.492 220.038c-12.223-87.035-68.398-160.093-145.18-196.068 51.026 46.798 83.118 114.29 83.118 188.984 0 73.308-30.735 139.338-80.117 186.007 3.027 8.649 11.611 14.654 21.587 13.229 6.363-.909 11.765-5.189 14.935-10.78l61.099-107.736a41.29 41.29 0 0 0 3.873-31.4l-4.737-17.087c-1.557-5.615 3.035-11.033 8.829-10.418l3.37.357a32.758 32.758 0 0 0 24.999-7.899z" opacity="1" data-original="#77cc7d"></path><path fill="#98db7c" d="M253.61 22.633 239.688.511C146.052 6.385 66.136 62.538 26.553 142.337l16.132 111.444a41.292 41.292 0 0 0 20.191 29.829 14.922 14.922 0 0 1 6.521 18.104l-5.508 14.859a33.031 33.031 0 0 0 10.373 37.302l14.709 11.735a41.292 41.292 0 0 1 11.749 14.995l38.221 82.94 22.34 15.765 15.775-10.756-5.721-23.908a57.807 57.807 0 0 1 4.871-40.002l24.808-47.977c6.833-13.215.561-29.429-13.387-34.605l-20.381-7.564a16.514 16.514 0 0 1-10.769-15.483v-1.591c0-9.122-7.395-16.516-16.516-16.516H104.53a49.545 49.545 0 0 1-24.736-6.616l-8.643-4.979a24.701 24.701 0 0 1-12.115-17.868l-.552-3.82a24.776 24.776 0 0 1 11.135-24.393l5.079-3.261a16.519 16.519 0 0 1 19.709 1.389l4.527 3.903c5.512 4.752 14.101 1.936 15.729-5.158l4.828-21.037a33.034 33.034 0 0 1 21.693-23.929l35.632-11.95c10.176-3.413 14.445-15.472 8.683-24.526l-16.198-25.453c-4.451-6.994-13.397-9.605-20.912-6.103l-13.377 6.235c-6.919 3.226-15.54 1.843-20.21-4.196-6.025-7.79-3.604-18.982 4.896-23.648l33.619-18.458c11.152-6.123 25.129-2.804 32.337 7.679l3.124 4.543A24.763 24.763 0 0 0 209.189 90h15.128a24.774 24.774 0 0 0 22.897-15.314l9.003-21.791a33.034 33.034 0 0 0-2.607-30.262z" opacity="1" data-original="#98db7c"></path><path fill="#77cc7d" d="M150.876 489.49a253.794 253.794 0 0 0 34.188 12.552l-8.01-33.488a254.491 254.491 0 0 1-38.114-5.009z" opacity="1" data-original="#77cc7d"></path></g></svg>
     