<svg xmlns="http://www.w3.org/2000/svg" version="1.1" xmlns:xlink="http://www.w3.org/1999/xlink" width="512" height="512" x="0" y="0" viewBox="0 0 512 512" style="enable-background:new 0 0 512 512" xml:space="preserve" class=""><g><path d="M256 0C115.3 0 0 115.3 0 256s115.3 256 256 256 256-115.3 256-256S396.7 0 256 0z" style="" fill="#9ed0ff" data-original="#9ed0ff"></path><path d="M512 256c0 140.7-115.3 256-256 256V0c140.7 0 256 115.3 256 256z" style="" fill="#73bcff" data-original="#73bcff"></path><path d="M256 30C131.8 30 30 131.8 30 256s101.8 226 226 226 226-101.8 226-226S380.2 30 256 30z" style="" fill="#3aaaff" data-original="#3aaaff"></path><path d="M482 256c0 124.2-101.8 226-226 226V30c124.2 0 226 101.8 226 226z" style="" fill="#0095ff" data-original="#0095ff"></path><path d="M256 0c-75.601 0-136 112.899-136 256 0 143.099 60.399 256 136 256s136-112.901 136-256C392 112.899 331.601 0 256 0zm0 482c-57.001 0-106-103.9-106-226S198.999 30 256 30s106 103.9 106 226-48.999 226-106 226z" style="" fill="#9ed0ff" data-original="#9ed0ff"></path><path d="M47.1 120h417.8v30H47.1zM15 241h482v30H15zM47.1 362h417.8v30H47.1z" style="" fill="#9ed0ff" data-original="#9ed0ff"></path><path d="M392 256c0 143.099-60.399 256-136 256v-30c57.001 0 106-103.9 106-226S313.001 30 256 30V0c75.601 0 136 112.899 136 256z" style="" fill="#73bcff" data-original="#73bcff"></path><path d="M256 120h208.9v30H256zM256 362h208.9v30H256zM256 241h241v30H256z" style="" fill="#73bcff" data-original="#73bcff"></path><path d="M241 15h30v482h-30z" style="" fill="#9ed0ff" data-original="#9ed0ff"></path><path d="M256 15h15v482h-15z" style="" fill="#73bcff" data-original="#73bcff"></path></g></svg>