<svg xmlns="http://www.w3.org/2000/svg" version="1.1" xmlns:xlink="http://www.w3.org/1999/xlink" width="512" height="512" x="0" y="0" viewBox="0 0 512 512" style="enable-background:new 0 0 512 512" xml:space="preserve" class=""><g><path fill="#4ad0ff" d="M8.953 223.071c0 123.001 100.069 223.07 223.07 223.07v-283.07z" opacity="1" data-original="#4ad0ff"></path><path fill="#1f8dcd" d="M232.024 163.071v283.07c123.001 0 223.071-100.069 223.071-223.07z" opacity="1" data-original="#1f8dcd"></path><path fill="#16a5d9" d="M455.094 223.071C455.094 100.069 355.025 0 232.024 0v223.071z" opacity="1" data-original="#16a5d9"></path><path fill="#86e0ff" d="M232.024 0C109.022 0 8.953 100.069 8.953 223.071h223.07V0z" opacity="1" data-original="#86e0ff"></path><path fill="#16a5d9" d="M343.559 223.071c0 123.001-50.034 223.07-111.535 223.07l-60-268.07h115.767z" opacity="1" data-original="#16a5d9"></path><path fill="#30bbec" d="M232.024 0c61.501 0 111.535 100.069 111.535 223.071H187.024z" opacity="1" data-original="#30bbec"></path><path fill="#30bbec" d="M120.489 223.071c0 123.001 50.034 223.07 111.535 223.07v-223.07l-55.768-45z" opacity="1" data-original="#30bbec"></path><path fill="#4ad0ff" d="M232.024 0c-61.501 0-111.535 100.069-111.535 223.071h111.535z" opacity="1" data-original="#4ad0ff"></path><path fill="#f71e45" d="M496.565 440.233 384.993 246.992c-9.208-15.948-25.321-23.921-41.434-23.921l-60 144.465 60 144.465h111.572c36.831-.001 59.85-39.872 41.434-71.768z" opacity="1" data-original="#f71e45"></path><path fill="#fa4350" d="M302.125 246.992 190.553 440.233C172.137 472.129 195.156 512 231.987 512h111.572V223.071c-16.113 0-32.226 7.973-41.434 23.921z" opacity="1" data-original="#fa4350"></path><path fill="#e7e6e6" d="M358.559 463.24h-15l-7.5-15 7.5-15h15z" opacity="1" data-original="#e7e6e6"></path><path fill="#ffffff" d="M328.559 433.24h15v30h-15z" opacity="1" data-original="#ffffff"></path><path fill="#e7e6e6" d="M358.559 403.24h-15l-7.5-52.388 7.5-52.388h15z" opacity="1" data-original="#e7e6e6"></path><path fill="#ffffff" d="M328.559 298.464h15V403.24h-15z" opacity="1" data-original="#ffffff"></path></g></svg>