<svg xmlns="http://www.w3.org/2000/svg" width="30" height="30" x="0" y="0" viewBox="0 0 100 100" style="enable-background:new 0 0 512 512"  class=""><g><linearGradient id="a"><stop offset="0" stop-color="#97e0ff"></stop><stop offset="1" stop-color="#1075ff"></stop></linearGradient><linearGradient id="b" x1="-12.179" x2="86.685" y1="15.396" y2="117.669" gradientUnits="userSpaceOnUse"></linearGradient><linearGradient  id="c" x1=".005" x2="98.869" y1="3.618" y2="105.891" gradientUnits="userSpaceOnUse"></linearGradient><linearGradient  id="d" x1="20.516" x2="119.38" y1="-16.208" y2="86.064" gradientUnits="userSpaceOnUse"></linearGradient><linearGradient  id="e" x1="-7.017" x2="91.846" y1="10.407" y2="112.68" gradientUnits="userSpaceOnUse"></linearGradient><linearGradient id="f" x1="27.521" x2="126.385" y1="-22.98" y2="79.293" gradientUnits="userSpaceOnUse"></linearGradient><path fill="url(#b)" d="M92.872 82.353H59.586v-.127a4.628 4.628 0 0 0-4.627-4.628h-.23V43.015c.687-.407 1.374-.864 1.959-1.475a9.485 9.485 0 0 0-.19-13.61c-3.6-3.411-9.446-3.411-13.047 0a9.485 9.485 0 0 0-.19 13.61c.585.61 1.272 1.068 1.958 1.475v34.583a4.628 4.628 0 0 0-4.627 4.628v.127H7.128A4.628 4.628 0 0 0 2.5 86.98v.254a4.628 4.628 0 0 0 4.628 4.628h33.464v.127a4.628 4.628 0 0 0 4.627 4.628h9.74a4.628 4.628 0 0 0 4.627-4.628v-.127h33.286a4.628 4.628 0 0 0 4.628-4.628v-.254a4.628 4.628 0 0 0-4.628-4.628z" opacity="1" data-original="url(#b)" class=""></path><path fill="url(#c)" d="m33.53 51.271.005-.004a4.739 4.739 0 0 0 .6-5.967c-4.184-6.326-4.182-14.633.005-20.971a4.738 4.738 0 0 0-.602-5.963l-.007-.008c-2.091-2.09-5.615-1.817-7.257.643-6.364 9.536-6.364 22.091 0 31.627 1.642 2.46 5.166 2.734 7.257.643z" opacity="1" data-original="url(#c)"></path><path fill="url(#d)" d="M73.726 50.628c6.364-9.536 6.364-22.091 0-31.627-1.642-2.46-5.166-2.734-7.257-.643l-.004.004a4.739 4.739 0 0 0-.6 5.967c4.184 6.327 4.182 14.633-.005 20.972a4.738 4.738 0 0 0 .602 5.963l.007.007c2.091 2.09 5.615 1.817 7.257-.643z" opacity="1" data-original="url(#d)"></path><path fill="url(#e)" d="M19.956 64.872a4.743 4.743 0 0 0 .336-6.326c-5.377-6.71-8.307-14.998-8.307-23.719 0-8.724 2.914-16.996 8.305-23.719a4.743 4.743 0 0 0-.335-6.326l-.002-.001c-1.983-1.984-5.273-1.846-7.03.34C6.163 13.523 2.5 23.89 2.5 34.827s3.664 21.305 10.422 29.707c1.758 2.186 5.048 2.323 7.031.34z" opacity="1" data-original="url(#e)"></path><path fill="url(#f)" d="m80.043 64.87.002.002c2.011 2.011 5.317 1.805 7.092-.417 13.784-17.255 13.783-41.978 0-59.251-1.776-2.224-5.082-2.431-7.094-.42-1.722 1.722-1.838 4.448-.32 6.352 11.006 13.81 11.006 33.573 0 47.383-1.518 1.904-1.402 4.63.32 6.35z" opacity="1" data-original="url(#f)"></path></g></svg>
     