<svg xmlns="http://www.w3.org/2000/svg" width="30" height="30" x="0" y="0" viewBox="0 0 24 24" style="enable-background:new 0 0 512 512"  class=""><g><path fill="#90a4ae" d="M12 14.5a1 1 0 0 1-1-1V6a1 1 0 1 1 2 0v7.5a1 1 0 0 1-1 1z" opacity="1" data-original="#90a4ae"></path><path fill="#7d8f97" d="M12 5a1 1 0 0 0-1 1v7.25a1 1 0 0 0 1 1v-6.5z" opacity="1" data-original="#7d8f97"></path><path fill="#90a4ae" d="M4 24a1 1 0 0 1-1-1v-2a1 1 0 1 1 2 0v2a1 1 0 0 1-1 1zM20 24a1 1 0 0 1-1-1v-2a1 1 0 1 1 2 0v2a1 1 0 0 1-1 1z" opacity="1" data-original="#90a4ae"></path><path fill="#607d8b" d="M21.25 22H2.75A2.753 2.753 0 0 1 0 19.25v-3.5A2.752 2.752 0 0 1 2.75 13h18.5A2.752 2.752 0 0 1 24 15.75v3.5A2.753 2.753 0 0 1 21.25 22z" opacity="1" data-original="#607d8b"></path><g fill="#2196f3"><path d="M14.38 7.524a.75.75 0 0 1-.185-1.044c.2-.285.305-.624.305-.98s-.105-.695-.305-.98a.75.75 0 0 1 1.229-.86c.377.538.576 1.174.576 1.84s-.199 1.302-.576 1.84a.749.749 0 0 1-1.044.184zM16.868 9.229a.749.749 0 0 1-.198-1.042c.543-.796.83-1.726.83-2.687s-.287-1.891-.83-2.688a.75.75 0 0 1 1.24-.845C18.623 3.014 19 4.236 19 5.5s-.377 2.486-1.09 3.532a.75.75 0 0 1-1.042.197z" fill="#2196f3" opacity="1" data-original="#2196f3"></path><path d="M19.332 10.866a.749.749 0 0 1-.188-1.043C20.031 8.543 20.5 7.048 20.5 5.5s-.469-3.043-1.356-4.323a.75.75 0 0 1 1.232-.854C21.438 1.854 22 3.644 22 5.5s-.562 3.646-1.624 5.177a.75.75 0 0 1-1.044.189zM8.576 7.34C8.199 6.802 8 6.165 8 5.5s.199-1.302.576-1.84a.75.75 0 1 1 1.229.859c-.2.286-.305.624-.305.981s.105.695.305.98a.75.75 0 0 1-1.229.86zM6.09 9.032C5.377 7.986 5 6.764 5 5.5s.377-2.486 1.09-3.532a.75.75 0 0 1 1.24.845c-.543.796-.83 1.725-.83 2.687s.287 1.891.83 2.688a.75.75 0 0 1-1.24.844z" fill="#2196f3" opacity="1" data-original="#2196f3"></path><path d="M3.624 10.677C2.562 9.145 2 7.355 2 5.5S2.562 1.854 3.624.323a.75.75 0 0 1 1.232.854C3.969 2.457 3.5 3.952 3.5 5.5s.469 3.043 1.356 4.323a.75.75 0 0 1-1.232.854z" fill="#2196f3" opacity="1" data-original="#2196f3"></path></g><path fill="#7d8f97" d="M4 17.5a1 1 0 0 0-1 1V23a1 1 0 0 0 1 1zM20 17.5a1 1 0 0 0-1 1V23a1 1 0 0 0 1 1z" opacity="1" data-original="#7d8f97"></path><path fill="#546d79" d="M24 17.5H0v1.75A2.753 2.753 0 0 0 2.75 22h18.5A2.752 2.752 0 0 0 24 19.25z" opacity="1" data-original="#546d79"></path><circle cx="19.5" cy="17.5" r="1.5" fill="#ffffff" opacity="1" data-original="#ffffff"></circle><circle cx="4.5" cy="17.5" r="1.5" fill="#ffffff" opacity="1" data-original="#ffffff"></circle><circle cx="9.5" cy="17.5" r="1.5" fill="#ffffff" opacity="1" data-original="#ffffff"></circle></g></svg>
    