<svg xmlns="http://www.w3.org/2000/svg" version="1.1" xmlns:xlink="http://www.w3.org/1999/xlink" width="512" height="512" x="0" y="0" viewBox="0 0 50 50" style="enable-background:new 0 0 512 512" xml:space="preserve" class=""><g><path fill="#4c5671" d="M43.93 21.72v4.675c-.001.179-.119.357-.353.493-.472.274-1.24.274-1.714 0-.239-.138-.358-.319-.358-.5v-4.675c0 .18.12.362.358.5.475.274 1.242.274 1.714 0 .234-.137.352-.315.352-.493z" opacity="1" data-original="#4c5671"></path><path fill="#b4bed7" d="M43.571 21.22c-.475-.274-1.242-.274-1.714 0-.471.274-.469.718.006.993.475.274 1.242.274 1.714 0 .472-.275.47-.719-.006-.993z" opacity="1" data-original="#b4bed7"></path><path fill="#4c5671" d="M43.47 11.052v10.57c-.001.11-.074.221-.22.306-.292.17-.768.17-1.063 0-.148-.086-.222-.198-.222-.31v-10.57c0 .111.074.224.222.31.295.17.771.17 1.064 0 .145-.085.218-.196.218-.306z" opacity="1" data-original="#4c5671"></path><path fill="#b4bed7" d="M43.247 10.741c-.294-.17-.77-.17-1.063 0-.293.17-.292.446.003.616.295.17.771.17 1.064 0 .293-.17.29-.446-.004-.616z" opacity="1" data-original="#b4bed7"></path><path fill="#4c5671" d="M27.278 12.106v4.675c0 .179-.118.357-.353.493-.471.274-1.239.274-1.713 0-.24-.138-.359-.319-.358-.5V12.1c0 .18.119.362.358.5.474.274 1.242.274 1.713 0 .235-.136.352-.315.353-.493z" opacity="1" data-original="#4c5671"></path><path fill="#b4bed7" d="M26.92 11.606c-.475-.274-1.242-.274-1.714 0s-.47.719.006.993c.474.274 1.242.274 1.713 0 .472-.274.47-.719-.005-.993z" opacity="1" data-original="#b4bed7"></path><path fill="#4c5671" d="M26.818 1.438v10.57c0 .11-.073.221-.219.306-.292.17-.769.17-1.063 0-.149-.086-.223-.198-.222-.31V1.434c0 .112.073.224.222.31.294.17.77.17 1.063 0 .146-.085.218-.195.219-.306z" opacity="1" data-original="#4c5671"></path><path fill="#b4bed7" d="M26.596 1.128c-.295-.17-.771-.17-1.064 0-.293.17-.291.446.004.616.294.17.77.17 1.063 0 .293-.17.291-.446-.003-.616zM48.996 36.678v1.518c-.01.82-.55 1.639-1.63 2.272l-13.055 7.59c-2.17 1.256-5.717 1.256-7.906 0L2.65 34.34c-1.098-.634-1.648-1.472-1.648-2.3l.01-1.518c0 .829.549 1.666 1.648 2.3l23.745 13.716c2.189 1.257 5.736 1.257 7.906 0l13.065-7.59c1.08-.632 1.62-1.452 1.62-2.271z" opacity="1" data-original="#b4bed7"></path><path fill="#e3e7f0" d="M47.35 34.368c2.187 1.263 2.199 3.316.025 4.58l-13.06 7.589c-2.173 1.263-5.717 1.263-7.905 0L2.658 32.824c-2.188-1.263-2.2-3.316-.026-4.58l13.06-7.589c2.174-1.263 5.718-1.263 7.906 0z" opacity="1" data-original="#e3e7f0"></path><path fill="#4c5671" d="M48.812 31.279v5.036c-.01.813-.546 1.626-1.617 2.254L34.24 46.1c-2.153 1.248-5.674 1.248-7.846 0L2.822 32.49c-1.09-.628-1.635-1.46-1.635-2.283l.009-5.035c0 .823.545 1.654 1.635 2.282l23.563 13.612c2.172 1.247 5.693 1.247 7.846 0l12.964-7.532c1.072-.628 1.608-1.44 1.608-2.254z" opacity="1" data-original="#4c5671"></path><path fill="#b4bed7" d="M48.996 29.674v1.518c-.01.82-.55 1.639-1.63 2.272l-13.055 7.59c-2.17 1.257-5.717 1.257-7.906 0L2.65 27.336c-1.098-.633-1.648-1.471-1.648-2.3l.01-1.518c0 .829.549 1.667 1.648 2.3l23.745 13.717c2.189 1.256 5.736 1.256 7.906 0l13.065-7.59c1.08-.633 1.62-1.452 1.62-2.272z" opacity="1" data-original="#b4bed7"></path><path fill="#e3e7f0" d="M47.35 27.365c2.187 1.263 2.199 3.315.025 4.579l-13.06 7.59c-2.173 1.262-5.717 1.262-7.905 0L2.658 25.82c-2.188-1.263-2.2-3.316-.026-4.579l13.06-7.59c2.174-1.263 5.718-1.263 7.906 0z" opacity="1" data-original="#e3e7f0"></path><path fill="#ffdd94" d="m24.445 42.128-.003 1.009 1.934 1.116.003-1.008zM21.472 40.412l-.003 1.009 1.934 1.116.003-1.008zM18.504 38.699l-.003 1.008 1.935 1.117.002-1.009z" opacity="1" data-original="#ffdd94"></path><path fill="#fe91ab" d="m15.536 36.985-.002 1.009 1.93 1.114.002-1.009zM12.564 35.27l-.003 1.008 1.934 1.116.003-1.008z" opacity="1" data-original="#fe91ab"></path><path fill="#272e3a" d="M4.77 29.71c-.634-.367-1.15-.073-1.152.655-.002.729.51 1.616 1.144 1.982s1.15.072 1.152-.657c.002-.728-.51-1.615-1.144-1.98z" opacity="1" data-original="#272e3a"></path><path fill="#96d696" d="M4.124 30.243c.136-.079.324-.068.532.052.413.239.746.817.745 1.291 0 .236-.084.402-.218.48l-.755.439c.134-.078.217-.244.218-.48.001-.475-.332-1.052-.745-1.291-.208-.12-.396-.131-.532-.052z" opacity="1" data-original="#96d696"></path><path fill="#77cb77" d="M3.9 30.734c-.412-.238-.748-.047-.75.428 0 .474.333 1.052.746 1.29.413.239.749.048.75-.427.001-.475-.332-1.052-.745-1.29z" opacity="1" data-original="#77cb77"></path><path fill="#7bb1ff" d="M33.504 28.3c1.803 1.066 1.813 2.779-.01 3.839-1.824 1.06-4.804 1.06-6.64 0L13.557 24.46c-1.846-1.066-1.855-2.792-.032-3.852 1.88-1.092 5.01-1.073 6.847.12 2.24-.634 5.474-.216 6.7 1.365 2.32-.546 5.05-.235 6.841.8 2.473 1.427 2.486 3.75.03 5.177a7.182 7.182 0 0 1-.438.229z" opacity="1" data-original="#7bb1ff"></path><path fill="#ffffff" d="M24.086 26.549c.457.264.46.688.006.952-.45.26-1.187.264-1.643 0-.457-.264-.45-.688-.001-.95.454-.263 1.182-.266 1.638-.002zM30.023 26.833c-.005.123-.177.223-.385.223-.158 0-.392-.07-.392-.226-.02-2.229-3.392-3.264-5.661-3.269-.166 0-.387-.063-.388-.223-.005-.123.167-.224.385-.224 2.576 0 6.426 1.18 6.44 3.719z" opacity="1" data-original="#ffffff"></path><path fill="#ffffff" d="M28.28 26.942c.002.126-.17.226-.389.226-.152-.002-.386-.072-.387-.223-.01-1.617-2.449-2.37-4.102-2.369-.152 0-.392-.074-.392-.226 0-.126.172-.227.39-.226 1.98 0 4.864.898 4.88 2.818z" opacity="1" data-original="#ffffff"></path><path fill="#ffffff" d="M26.54 27.05c-.005.124-.178.224-.39.227-.156-.002-.386-.074-.393-.226-.011-.963-1.534-1.463-2.537-1.465-.16-.005-.378-.067-.393-.227.005-.123.177-.224.39-.226 1.34.008 3.302.6 3.322 1.918z" opacity="1" data-original="#ffffff"></path></g></svg>