<svg xmlns="http://www.w3.org/2000/svg" version="1.1" xmlns:xlink="http://www.w3.org/1999/xlink" width="512" height="512" x="0" y="0" viewBox="0 0 68.3 53.5" style="enable-background:new 0 0 512 512" xml:space="preserve" class=""><g><linearGradient id="a" x1="17.981" x2="44.775" y1="8.408" y2="54.816" gradientTransform="matrix(1 0 0 -1 0 53.89)" gradientUnits="userSpaceOnUse"><stop offset="0" stop-color="#006bfc"></stop><stop offset="1" stop-color="#97e6ff"></stop></linearGradient><path fill="url(#a)" fill-rule="evenodd" d="M58 21.9c-13.2-13.2-34.6-13.2-47.8 0-2.3 2.3-6.1 2.3-8.5 0-2.3-2.3-2.3-6.1 0-8.5 17.9-17.9 46.9-17.9 64.7 0 2.3 2.3 2.3 6.1 0 8.5-2.2 2.3-6 2.3-8.4 0zM44.6 35.3c-5.8-5.8-15.1-5.8-20.9 0-2.3 2.3-6.1 2.3-8.5 0-2.3-2.3-2.3-6.1 0-8.5 10.4-10.4 27.4-10.4 37.8 0 2.3 2.3 2.3 6.1 0 8.5s-6.1 2.4-8.4 0zM42 45.5c0 4.4-3.6 8-8 8s-8-3.6-8-8 3.6-8 8-8 8 3.6 8 8z" clip-rule="evenodd" opacity="1" data-original="url(#a)"></path></g></svg>